<svg width="25" height="25" viewBox="0 0 25 25" fill="none" xmlns="http://www.w3.org/2000/svg">
<path d="M16.086 11.1894L12.136 7.23939C11.9538 7.05079 11.853 6.79819 11.8553 6.53599C11.8576 6.27379 11.9628 6.02298 12.1482 5.83757C12.3336 5.65216 12.5844 5.54699 12.8466 5.54472C13.1088 5.54244 13.3614 5.64323 13.55 5.82539L19.207 11.4824C19.3002 11.575 19.3741 11.6852 19.4246 11.8065C19.4751 11.9279 19.501 12.058 19.501 12.1894C19.501 12.3208 19.4751 12.4509 19.4246 12.5722C19.3741 12.6936 19.3002 12.8037 19.207 12.8964L13.55 18.5534C13.4578 18.6489 13.3474 18.7251 13.2254 18.7775C13.1034 18.8299 12.9722 18.8575 12.8394 18.8586C12.7066 18.8598 12.5749 18.8345 12.452 18.7842C12.3291 18.7339 12.2175 18.6597 12.1236 18.5658C12.0297 18.4719 11.9555 18.3602 11.9052 18.2373C11.8549 18.1144 11.8296 17.9828 11.8307 17.85C11.8319 17.7172 11.8595 17.586 11.9119 17.464C11.9643 17.342 12.0405 17.2316 12.136 17.1394L16.086 13.1894H6.5C6.23478 13.1894 5.98043 13.084 5.79289 12.8965C5.60536 12.709 5.5 12.4546 5.5 12.1894C5.5 11.9242 5.60536 11.6698 5.79289 11.4823C5.98043 11.2947 6.23478 11.1894 6.5 11.1894H16.086Z" fill="#2563EB"/>
</svg>
