<svg width="80" height="80" viewBox="0 0 80 80" fill="none" xmlns="http://www.w3.org/2000/svg">
<circle cx="40" cy="40" r="40" fill="#E1E1E1"/>
<path d="M46.0655 40L55.1627 30.9027C56.2791 29.7864 56.2791 27.9764 55.1627 26.8591L53.1409 24.8373C52.0245 23.7209 50.2145 23.7209 49.0973 24.8373L40 33.9345L30.9027 24.8373C29.7864 23.7209 27.9764 23.7209 26.8591 24.8373L24.8373 26.8591C23.7209 27.9755 23.7209 29.7855 24.8373 30.9027L33.9345 40L24.8373 49.0973C23.7209 50.2136 23.7209 52.0236 24.8373 53.1409L26.8591 55.1627C27.9755 56.2791 29.7864 56.2791 30.9027 55.1627L40 46.0655L49.0973 55.1627C50.2136 56.2791 52.0245 56.2791 53.1409 55.1627L55.1627 53.1409C56.2791 52.0245 56.2791 50.2145 55.1627 49.0973L46.0655 40Z" fill="#1E212D"/>
</svg>
