<svg width="19" height="19" viewBox="0 0 19 19" fill="none" xmlns="http://www.w3.org/2000/svg">
<path d="M18.7982 9.13956C18.7642 4.14234 14.6878 0.121053 9.6906 0.155069C4.69338 0.189084 0.672091 4.26549 0.706107 9.26271C0.73684 13.7777 4.07033 17.4976 8.39956 18.1474L8.35652 11.8257L6.05853 11.8414L6.04073 9.2264L8.33873 9.21076L8.32516 7.2177C8.30973 4.95072 9.65082 3.68931 11.7179 3.67523C12.7079 3.6685 13.7443 3.83799 13.7443 3.83799L13.7594 6.06303L12.6184 6.0708C11.495 6.07845 11.1492 6.77826 11.1541 7.49355L11.1656 9.19151L13.6744 9.17444L13.291 11.7921L11.1834 11.8065L11.2265 18.1282C15.5464 17.4195 18.829 13.6546 18.7982 9.13956Z" fill="white"/>
</svg>
