<svg width="174" height="36" viewBox="0 0 174 36" fill="none" xmlns="http://www.w3.org/2000/svg">
<path d="M21.0001 12.0634L18.5001 12.0634C18.3031 12.0634 18.108 12.1023 17.926 12.1776C17.7441 12.253 17.5787 12.3635 17.4393 12.5027C17.3001 12.6421 17.1896 12.8075 17.1142 12.9894C17.0388 13.1714 17 13.3665 17 13.5635L17 19.0635C16.5 21.0631 16.4065 21.6569 15 23.0635C13.5935 24.47 12.4892 25.5634 10.5 25.5635C9.51511 25.5635 8.90995 25.4404 8 25.0635C7.09004 24.6866 6.19645 23.7599 5.5 23.0635C4.80356 22.367 4.87691 22.4734 4.5 21.5635C4.12309 20.6535 4.00003 20.0484 4.00004 19.0635L4.00004 13.5639C4.0001 13.3669 3.96134 13.1718 3.88599 12.9897C3.81063 12.8077 3.70015 12.6422 3.56086 12.503C3.42155 12.3636 3.25617 12.2531 3.07415 12.1776C2.89214 12.1023 2.69705 12.0634 2.50002 12.0634L-7.43095e-07 12.0634L-4.15255e-07 18.5636C-3.55061e-07 19.9424 0.271592 21.3078 0.799269 22.5817C1.32695 23.8556 2.10038 25.0132 3.07539 25.9882C4.05042 26.9632 5.20793 27.7366 6.48186 28.2642C7.75578 28.7919 9.12116 29.0635 10.5 29.0635C13.2848 29.0635 15.9555 27.9572 17.9247 25.9881C19.8938 24.019 21.0001 21.3483 21.0001 18.5636L21.0001 12.0634Z" fill="#EA580C"/>
<circle cx="4.5" cy="11.501" r="4.5" fill="white"/>
<path d="M33.0312 11.626V14.8135H23.1875V11.626H33.0312ZM25.625 7.4541H30.125V23.4385C30.125 23.9281 30.1875 24.3031 30.3125 24.5635C30.4479 24.8239 30.6458 25.0062 30.9062 25.1104C31.1667 25.2041 31.4948 25.251 31.8906 25.251C32.1719 25.251 32.4219 25.2406 32.6406 25.2197C32.8698 25.1885 33.0625 25.1572 33.2188 25.126L33.2344 28.4385C32.849 28.5635 32.4323 28.6624 31.9844 28.7354C31.5365 28.8083 31.0417 28.8447 30.5 28.8447C29.5104 28.8447 28.6458 28.6833 27.9062 28.3604C27.1771 28.027 26.6146 27.4958 26.2188 26.7666C25.8229 26.0374 25.625 25.0791 25.625 23.8916V7.4541ZM43.375 28.8447C42.0625 28.8447 40.8854 28.6364 39.8438 28.2197C38.8021 27.7926 37.9167 27.2041 37.1875 26.4541C36.4688 25.7041 35.9167 24.8343 35.5312 23.8447C35.1458 22.8447 34.9531 21.7822 34.9531 20.6572V20.0322C34.9531 18.751 35.1354 17.5791 35.5 16.5166C35.8646 15.4541 36.3854 14.5322 37.0625 13.751C37.75 12.9697 38.5833 12.3708 39.5625 11.9541C40.5417 11.527 41.6458 11.3135 42.875 11.3135C44.0729 11.3135 45.1354 11.5114 46.0625 11.9072C46.9896 12.3031 47.7656 12.8656 48.3906 13.5947C49.026 14.3239 49.5052 15.1989 49.8281 16.2197C50.151 17.2301 50.3125 18.3551 50.3125 19.5947V21.4697H36.875V18.4697H45.8906V18.126C45.8906 17.501 45.776 16.9437 45.5469 16.4541C45.3281 15.9541 44.9948 15.5583 44.5469 15.2666C44.099 14.9749 43.526 14.8291 42.8281 14.8291C42.2344 14.8291 41.724 14.9593 41.2969 15.2197C40.8698 15.4801 40.5208 15.8447 40.25 16.3135C39.9896 16.7822 39.7917 17.3343 39.6562 17.9697C39.5312 18.5947 39.4688 19.2822 39.4688 20.0322V20.6572C39.4688 21.3343 39.5625 21.9593 39.75 22.5322C39.9479 23.1051 40.224 23.5999 40.5781 24.0166C40.9427 24.4333 41.3802 24.7562 41.8906 24.9854C42.4115 25.2145 43 25.3291 43.6562 25.3291C44.4688 25.3291 45.224 25.1729 45.9219 24.8604C46.6302 24.5374 47.2396 24.0531 47.75 23.4072L49.9375 25.7822C49.5833 26.2926 49.099 26.7822 48.4844 27.251C47.8802 27.7197 47.151 28.1051 46.2969 28.4072C45.4427 28.6989 44.4688 28.8447 43.375 28.8447ZM62 24.7197V17.1885C62 16.6468 61.9115 16.1833 61.7344 15.7979C61.5573 15.402 61.2812 15.0947 60.9062 14.876C60.5417 14.6572 60.0677 14.5479 59.4844 14.5479C58.9844 14.5479 58.5521 14.6364 58.1875 14.8135C57.8229 14.9801 57.5417 15.2249 57.3438 15.5479C57.1458 15.8604 57.0469 16.2301 57.0469 16.6572H52.5469C52.5469 15.9385 52.7135 15.2562 53.0469 14.6104C53.3802 13.9645 53.8646 13.3968 54.5 12.9072C55.1354 12.4072 55.8906 12.0166 56.7656 11.7354C57.651 11.4541 58.6406 11.3135 59.7344 11.3135C61.0469 11.3135 62.2135 11.5322 63.2344 11.9697C64.2552 12.4072 65.0573 13.0635 65.6406 13.9385C66.2344 14.8135 66.5312 15.9072 66.5312 17.2197V24.4541C66.5312 25.3812 66.5885 26.1416 66.7031 26.7354C66.8177 27.3187 66.9844 27.8291 67.2031 28.2666V28.5322H62.6562C62.4375 28.0739 62.2708 27.501 62.1562 26.8135C62.0521 26.1156 62 25.4176 62 24.7197ZM62.5938 18.2354L62.625 20.7822H60.1094C59.5156 20.7822 59 20.8499 58.5625 20.9854C58.125 21.1208 57.7656 21.3135 57.4844 21.5635C57.2031 21.8031 56.9948 22.0843 56.8594 22.4072C56.7344 22.7301 56.6719 23.0843 56.6719 23.4697C56.6719 23.8551 56.7604 24.2041 56.9375 24.5166C57.1146 24.8187 57.3698 25.0583 57.7031 25.2354C58.0365 25.402 58.4271 25.4854 58.875 25.4854C59.5521 25.4854 60.1406 25.3499 60.6406 25.0791C61.1406 24.8083 61.526 24.4749 61.7969 24.0791C62.0781 23.6833 62.224 23.3083 62.2344 22.9541L63.4219 24.8604C63.2552 25.2874 63.026 25.7301 62.7344 26.1885C62.4531 26.6468 62.0938 27.0791 61.6562 27.4854C61.2188 27.8812 60.6927 28.2093 60.0781 28.4697C59.4635 28.7197 58.7344 28.8447 57.8906 28.8447C56.8177 28.8447 55.8438 28.6312 54.9688 28.2041C54.1042 27.7666 53.4167 27.1676 52.9062 26.4072C52.4062 25.6364 52.1562 24.7614 52.1562 23.7822C52.1562 22.8968 52.3229 22.1104 52.6562 21.4229C52.9896 20.7354 53.4792 20.1572 54.125 19.6885C54.7812 19.2093 55.599 18.8499 56.5781 18.6104C57.5573 18.3604 58.6927 18.2354 59.9844 18.2354H62.5938ZM76.9844 25.3291C77.5365 25.3291 78.026 25.2249 78.4531 25.0166C78.8802 24.7979 79.2135 24.4958 79.4531 24.1104C79.7031 23.7145 79.8333 23.251 79.8438 22.7197H84.0781C84.0677 23.9072 83.75 24.9645 83.125 25.8916C82.5 26.8083 81.6615 27.5322 80.6094 28.0635C79.5573 28.5843 78.3802 28.8447 77.0781 28.8447C75.7656 28.8447 74.6198 28.626 73.6406 28.1885C72.6719 27.751 71.8646 27.1468 71.2188 26.376C70.5729 25.5947 70.0885 24.6885 69.7656 23.6572C69.4427 22.6156 69.2812 21.501 69.2812 20.3135V19.8604C69.2812 18.6624 69.4427 17.5479 69.7656 16.5166C70.0885 15.4749 70.5729 14.5687 71.2188 13.7979C71.8646 13.0166 72.6719 12.4072 73.6406 11.9697C74.6094 11.5322 75.7448 11.3135 77.0469 11.3135C78.4323 11.3135 79.6458 11.5791 80.6875 12.1104C81.7396 12.6416 82.5625 13.402 83.1562 14.3916C83.7604 15.3708 84.0677 16.5322 84.0781 17.876H79.8438C79.8333 17.3135 79.7135 16.8031 79.4844 16.3447C79.2656 15.8864 78.9427 15.5218 78.5156 15.251C78.099 14.9697 77.5833 14.8291 76.9688 14.8291C76.3125 14.8291 75.776 14.9697 75.3594 15.251C74.9427 15.5218 74.6198 15.8968 74.3906 16.376C74.1615 16.8447 74 17.3812 73.9062 17.9854C73.8229 18.5791 73.7812 19.2041 73.7812 19.8604V20.3135C73.7812 20.9697 73.8229 21.5999 73.9062 22.2041C73.9896 22.8083 74.1458 23.3447 74.375 23.8135C74.6146 24.2822 74.9427 24.652 75.3594 24.9229C75.776 25.1937 76.3177 25.3291 76.9844 25.3291ZM91.0781 4.53223V28.5322H86.5781V4.53223H91.0781ZM90.4375 19.4854H89.2031C89.2135 18.3083 89.3698 17.2249 89.6719 16.2354C89.974 15.2354 90.4062 14.3708 90.9688 13.6416C91.5312 12.902 92.2031 12.3291 92.9844 11.9229C93.776 11.5166 94.651 11.3135 95.6094 11.3135C96.4427 11.3135 97.1979 11.4333 97.875 11.6729C98.5625 11.902 99.151 12.277 99.6406 12.7979C100.141 13.3083 100.526 13.9801 100.797 14.8135C101.068 15.6468 101.203 16.6572 101.203 17.8447V28.5322H96.6719V17.8135C96.6719 17.0635 96.5625 16.4749 96.3438 16.0479C96.1354 15.6104 95.8281 15.3031 95.4219 15.126C95.026 14.9385 94.5365 14.8447 93.9531 14.8447C93.3073 14.8447 92.7552 14.9645 92.2969 15.2041C91.849 15.4437 91.4896 15.777 91.2188 16.2041C90.9479 16.6208 90.75 17.1104 90.625 17.6729C90.5 18.2354 90.4375 18.8395 90.4375 19.4854Z" fill="white"/>
</svg>
