<svg width="15" height="14" viewBox="0 0 15 14" fill="none" xmlns="http://www.w3.org/2000/svg">
<path d="M11.2525 6.18915L7.3025 2.23915C7.12035 2.05054 7.01955 1.79794 7.02183 1.53574C7.02411 1.27355 7.12928 1.02273 7.31469 0.837327C7.50009 0.651919 7.75091 0.54675 8.0131 0.544471C8.2753 0.542193 8.5279 0.642987 8.7165 0.825145L14.3735 6.48215C14.4667 6.5748 14.5406 6.68496 14.5911 6.80629C14.6416 6.92763 14.6675 7.05774 14.6675 7.18915C14.6675 7.32055 14.6416 7.45067 14.5911 7.572C14.5406 7.69333 14.4667 7.80349 14.3735 7.89615L8.7165 13.5531C8.62426 13.6487 8.51391 13.7248 8.39191 13.7772C8.2699 13.8297 8.13868 13.8572 8.00591 13.8584C7.87313 13.8595 7.74145 13.8342 7.61855 13.784C7.49565 13.7337 7.384 13.6594 7.29011 13.5655C7.19622 13.4716 7.12196 13.36 7.07168 13.2371C7.0214 13.1142 6.9961 12.9825 6.99725 12.8497C6.99841 12.717 7.02599 12.5857 7.0784 12.4637C7.13081 12.3417 7.20699 12.2314 7.3025 12.1391L11.2525 8.18915H1.6665C1.40129 8.18915 1.14693 8.08379 0.959397 7.89625C0.771861 7.70872 0.666504 7.45436 0.666504 7.18915C0.666504 6.92393 0.771861 6.66957 0.959397 6.48204C1.14693 6.2945 1.40129 6.18915 1.6665 6.18915H11.2525Z" fill="#E2E8F0"/>
</svg>
