<svg width="65" height="65" viewBox="0 0 65 65" fill="none" xmlns="http://www.w3.org/2000/svg">
<path d="M32.3335 46.5323C31.9853 46.5322 31.6432 46.4413 31.341 46.2685L13.8335 36.2623C13.6814 36.1744 13.5088 36.1282 13.3331 36.1283C13.1575 36.1284 12.9849 36.1747 12.8329 36.2626C12.6808 36.3506 12.5546 36.477 12.4669 36.6293C12.3793 36.7815 12.3332 36.9541 12.3335 37.1298V46.5323C12.3332 46.8892 12.4284 47.2398 12.6093 47.5475C12.7902 47.8552 13.0502 48.1089 13.3622 48.2823L31.3622 58.2823C31.6594 58.4473 31.9936 58.5339 32.3335 58.5339C32.6734 58.5339 33.0076 58.4473 33.3047 58.2823L51.3047 48.2823C51.6168 48.1089 51.8768 47.8552 52.0577 47.5475C52.2386 47.2398 52.3338 46.8892 52.3335 46.5323V37.1298C52.3338 36.9541 52.2877 36.7815 52.2001 36.6293C52.1124 36.477 51.9862 36.3506 51.8341 36.2626C51.6821 36.1747 51.5095 36.1284 51.3339 36.1283C51.1582 36.1282 50.9856 36.1744 50.8335 36.2623L33.326 46.2685C33.0238 46.4413 32.6816 46.5322 32.3335 46.5323Z" fill="#FACC15"/>
<path d="M62.3236 24.3447C62.3236 24.3447 62.3236 24.3347 62.3236 24.331C62.2913 24.014 62.1836 23.7093 62.0097 23.4423C61.8358 23.1753 61.6005 22.9537 61.3236 22.796L33.3236 6.79599C33.0214 6.62322 32.6792 6.53235 32.3311 6.53235C31.983 6.53235 31.6409 6.62322 31.3386 6.79599L3.33861 22.796C3.03259 22.971 2.77825 23.2237 2.60136 23.5286C2.42447 23.8335 2.3313 24.1797 2.3313 24.5322C2.3313 24.8847 2.42447 25.231 2.60136 25.5359C2.77825 25.8408 3.03259 26.0935 3.33861 26.2685L31.3386 42.2685C31.6409 42.4412 31.983 42.5321 32.3311 42.5321C32.6792 42.5321 33.0214 42.4412 33.3236 42.2685L57.9586 28.1922C57.9967 28.1703 58.0399 28.1587 58.0839 28.1587C58.1278 28.1588 58.171 28.1704 58.209 28.1925C58.2471 28.2145 58.2786 28.2462 58.3005 28.2844C58.3224 28.3225 58.3338 28.3658 58.3336 28.4097V46.476C58.3336 47.5522 59.1611 48.476 60.2374 48.5297C60.5078 48.5428 60.778 48.5008 61.0317 48.4062C61.2854 48.3117 61.5173 48.1667 61.7133 47.98C61.9093 47.7932 62.0653 47.5686 62.172 47.3197C62.2786 47.0709 62.3336 46.803 62.3336 46.5322V24.5322C62.3335 24.4696 62.3301 24.407 62.3236 24.3447Z" fill="#FB923C"/>
</svg>
