<svg width="65" height="65" viewBox="0 0 65 65" fill="none" xmlns="http://www.w3.org/2000/svg">
<path d="M32.6667 6.53223C18.3305 6.53223 6.66675 18.196 6.66675 32.5322C6.66675 46.8685 18.3305 58.5322 32.6667 58.5322C47.003 58.5322 58.6667 46.8685 58.6667 32.5322C58.6667 18.196 47.003 6.53223 32.6667 6.53223ZM42.003 38.1347C40.9405 39.4297 37.0417 42.9447 32.6667 46.0735C28.2917 42.9485 24.393 39.4297 23.3305 38.1347C20.8305 35.0885 19.633 31.9597 19.668 28.5722C19.7067 24.6897 22.8205 21.531 26.6092 21.531C29.3592 21.531 31.2717 23.0822 32.383 24.376L32.6667 24.7197L32.9505 24.376C34.0417 23.0685 35.9692 21.5322 38.7243 21.5322C42.513 21.5322 45.6267 24.691 45.6655 28.5735C45.7005 31.9597 44.5018 35.0885 42.003 38.1347Z" fill="#FACC15"/>
<path d="M43.1627 39.0861L43.1626 39.0862C41.9742 40.5347 37.9482 44.1406 33.5393 47.2936L32.6673 47.9172L31.7949 47.2941C27.3848 44.144 23.3591 40.5344 22.1708 39.0862C19.4857 35.8143 18.129 32.3527 18.1681 28.5573L43.1627 39.0861ZM43.1627 39.0861C45.8462 35.8146 47.2045 32.3531 47.1654 28.5585M43.1627 39.0861L47.1654 28.5585M32.66 22.5029C34.0013 21.2461 36.0239 20.0323 38.7242 20.0323C43.3695 20.0323 47.1188 23.8879 47.1654 28.5585M32.66 22.5029L47.1654 28.5585M32.66 22.5029C31.3225 21.2608 29.3122 20.031 26.6092 20.031C21.9641 20.031 18.215 23.8863 18.1681 28.5568L32.66 22.5029Z" fill="#FB923C" stroke="#0F172A" stroke-width="3"/>
</svg>
