<svg width="17" height="18" viewBox="0 0 17 18" fill="none" xmlns="http://www.w3.org/2000/svg">
<path d="M8.65726 4.70101C6.33738 4.71681 4.47889 6.60077 4.49468 8.92064C4.51047 11.2405 6.39443 13.099 8.71431 13.0832C11.0342 13.0674 12.8927 11.1835 12.8769 8.86359C12.8611 6.54371 10.9771 4.68522 8.65726 4.70101ZM8.70433 11.6169C7.20516 11.6271 5.97125 10.4135 5.96102 8.91066C5.95079 7.40785 7.16442 6.17758 8.66724 6.16735C10.1701 6.15712 11.4003 7.37075 11.4105 8.87357C11.4208 10.3764 10.2035 11.6067 8.70433 11.6169ZM13.9962 4.49323C13.9999 5.03672 13.5651 5.47377 13.0253 5.47744C12.4818 5.48114 12.0447 5.04638 12.0411 4.50654C12.0374 3.96669 12.4721 3.526 13.012 3.52232C13.5518 3.51865 13.9925 3.95338 13.9962 4.49323ZM16.7788 5.46648C16.7078 4.15741 16.4008 2.99951 15.435 2.05037C14.4728 1.1012 13.3109 0.80999 12.0009 0.753247C10.6508 0.685834 6.6056 0.713369 5.2565 0.799155C3.95108 0.870053 2.79318 1.17705 1.84036 2.13926C0.887547 3.10146 0.599987 4.26341 0.543243 5.57335C0.47583 6.92348 0.503366 10.9687 0.589152 12.3178C0.660075 13.6268 0.967074 14.7847 1.9329 15.7339C2.89873 16.683 4.05705 16.9743 5.36699 17.031C6.71713 17.0984 10.7623 17.0709 12.1114 16.9851C13.4205 16.9142 14.5784 16.6072 15.5275 15.6414C16.4767 14.6792 16.7679 13.5172 16.8247 12.2073C16.8921 10.8571 16.8646 6.81558 16.7788 5.46648ZM15.091 13.6672C14.8113 14.3841 14.2643 14.9386 13.5476 15.2317C12.4745 15.6658 9.92051 15.5847 8.73139 15.5928C7.54227 15.6009 4.98595 15.7131 3.91067 15.2973C3.1938 15.0176 2.63927 14.4706 2.34621 13.754C1.91212 12.6808 1.99322 10.1268 1.98513 8.93773C1.97704 7.74861 1.86479 5.19228 2.28061 4.117C2.56026 3.40013 3.1073 2.8456 3.82392 2.55254C4.89706 2.11845 7.45105 2.19955 8.64017 2.19146C9.82929 2.18337 12.3856 2.07112 13.4609 2.48695C14.1778 2.76659 14.7323 3.31363 15.0254 4.03025C15.4594 5.10339 15.3783 7.65738 15.3864 8.8465C15.3945 10.0356 15.5104 12.5919 15.091 13.6672Z" fill="white"/>
</svg>
