<svg width="20" height="20" viewBox="0 0 20 20" fill="none" xmlns="http://www.w3.org/2000/svg">
<path opacity="0.2" d="M18 18L14.1422 14.1422M16.2222 9.11111C16.2222 10.5176 15.8052 11.8924 15.0238 13.0618C14.2424 14.2312 13.1318 15.1427 11.8324 15.6809C10.533 16.2191 9.10322 16.36 7.7238 16.0856C6.34438 15.8112 5.07731 15.1339 4.0828 14.1394C3.08829 13.1449 2.41102 11.8778 2.13664 10.4984C1.86226 9.119 2.00308 7.68919 2.5413 6.38981C3.07953 5.09042 3.99098 3.97982 5.16039 3.19844C6.32981 2.41706 7.70467 2 9.11111 2C10.9971 2 12.8058 2.7492 14.1394 4.0828C15.473 5.41639 16.2222 7.22513 16.2222 9.11111Z" stroke="#1E212D" stroke-width="2.5" stroke-linecap="round" stroke-linejoin="round"/>
</svg>
