<svg width="64" height="65" viewBox="0 0 64 65" fill="none" xmlns="http://www.w3.org/2000/svg">
<path d="M15.2151 4.53225C15.1321 4.53148 15.0503 4.55137 14.9769 4.59011C14.9036 4.62886 14.841 4.68524 14.7949 4.75419C14.7488 4.82313 14.7205 4.90247 14.7127 4.98505C14.7049 5.06763 14.7177 5.15087 14.7501 5.22725L15.0376 5.906L20.1251 17.7685C20.1596 17.8492 20.2148 17.9193 20.2851 17.9719C20.3554 18.0245 20.4383 18.0577 20.5255 18.068C20.6126 18.0784 20.701 18.0657 20.7817 18.0311C20.8623 17.9965 20.9325 17.9413 20.9851 17.871L30.375 5.33225C30.4308 5.25796 30.4647 5.16963 30.473 5.07715C30.4814 4.98467 30.4638 4.89169 30.4223 4.80864C30.3807 4.72559 30.3169 4.65574 30.2379 4.60692C30.1589 4.55811 30.0679 4.53225 29.975 4.53225H15.2151Z" fill="#FACC15"/>
<path d="M52.4911 7.7897L47.3311 19.8359C47.2987 19.912 47.2856 19.9949 47.2931 20.0773C47.3005 20.1596 47.3283 20.2388 47.3738 20.3078C47.4194 20.3768 47.4814 20.4334 47.5542 20.4726C47.6271 20.5117 47.7085 20.5322 47.7911 20.5322H60.4161C60.5053 20.5322 60.5928 20.5084 60.6697 20.4633C60.7465 20.4181 60.8099 20.3532 60.8533 20.2753C60.8966 20.1974 60.9184 20.1094 60.9162 20.0202C60.9141 19.9311 60.8882 19.8442 60.8411 19.7684L53.3749 7.72345C53.3267 7.6459 53.2581 7.58305 53.1767 7.54171C53.0952 7.50037 53.004 7.48212 52.913 7.48895C52.8219 7.49578 52.7344 7.52742 52.6601 7.58043C52.5857 7.63345 52.5273 7.70583 52.4911 7.7897Z" fill="#FACC15"/>
<path d="M10.6249 7.72851L3.16116 19.7685C3.11414 19.8442 3.08821 19.9312 3.08608 20.0203C3.08395 20.1094 3.10568 20.1975 3.14903 20.2754C3.19238 20.3533 3.25576 20.4182 3.33262 20.4633C3.40948 20.5085 3.49701 20.5323 3.58616 20.5323H16.2112C16.2939 20.5322 16.3753 20.5115 16.4481 20.4722C16.5209 20.4329 16.5828 20.3761 16.6283 20.307C16.6738 20.2379 16.7014 20.1586 16.7086 20.0761C16.7159 19.9937 16.7026 19.9108 16.6699 19.8348L11.4999 7.79476C11.4629 7.71297 11.4046 7.64265 11.3311 7.59116C11.2576 7.53968 11.1716 7.50894 11.0821 7.50216C10.9926 7.49538 10.9029 7.51282 10.8224 7.55265C10.742 7.59248 10.6738 7.65322 10.6249 7.72851Z" fill="#FACC15"/>
<path d="M49.1587 4.53223H33.4775C33.4322 4.53194 33.3878 4.54431 33.3492 4.56795C33.3106 4.59159 33.2794 4.62555 33.2591 4.666C33.2389 4.70644 33.2303 4.75176 33.2344 4.79682C33.2385 4.84188 33.2552 4.88489 33.2825 4.92098L43.2725 18.2285C43.298 18.2627 43.332 18.2895 43.3712 18.3063C43.4104 18.3232 43.4533 18.3293 43.4957 18.3243C43.538 18.3192 43.5783 18.303 43.6124 18.2775C43.6465 18.2519 43.6733 18.2177 43.69 18.1785L48.95 5.90723L49.375 4.86473C49.3899 4.82895 49.396 4.79007 49.3927 4.75142C49.3893 4.71277 49.3767 4.67551 49.3558 4.64282C49.3349 4.61014 49.3064 4.583 49.2727 4.56374C49.2391 4.54448 49.2012 4.53367 49.1625 4.53223H49.1587Z" fill="#FACC15"/>
<path d="M29.8749 56.5322L18.6962 24.846C18.6634 24.754 18.6028 24.6744 18.5229 24.6182C18.443 24.562 18.3476 24.532 18.2499 24.5322H3.21242C3.12531 24.532 3.03988 24.5562 2.96587 24.6021C2.89186 24.6481 2.83224 24.7139 2.7938 24.7921C2.75537 24.8702 2.73967 24.9576 2.74848 25.0443C2.7573 25.131 2.79028 25.2134 2.84367 25.2822L29.8437 60.2585C29.9351 60.3768 30.0655 60.459 30.2117 60.4903C30.3579 60.5217 30.5105 60.5002 30.6424 60.4297C30.7751 60.3599 30.8782 60.2448 30.9331 60.1053C30.9879 59.9658 30.9908 59.8112 30.9412 59.6697L29.8749 56.5322Z" fill="#FACC15"/>
<path d="M60.7875 24.5322H45.75C45.6529 24.5322 45.5581 24.5624 45.4788 24.6186C45.3995 24.6748 45.3397 24.7543 45.3075 24.846L33.0325 59.616C32.981 59.7619 32.9831 59.9215 33.0385 60.066C33.094 60.2106 33.1991 60.3307 33.335 60.4047C33.471 60.4784 33.6287 60.5013 33.78 60.4695C33.9314 60.4377 34.0665 60.3531 34.1613 60.231L61.1563 25.2822C61.2097 25.2134 61.2427 25.131 61.2515 25.0443C61.2603 24.9576 61.2446 24.8702 61.2062 24.7921C61.1677 24.7139 61.1081 24.6481 61.0341 24.6021C60.9601 24.5562 60.8746 24.532 60.7875 24.5322Z" fill="#FACC15"/>
<path d="M32.3999 10.3985L39.3999 19.7322C39.4556 19.8065 39.4895 19.8949 39.4979 19.9873C39.5062 20.0798 39.4886 20.1728 39.4471 20.2558C39.4056 20.3389 39.3417 20.4087 39.2628 20.4576C39.1838 20.5064 39.0927 20.5322 38.9999 20.5322H24.9999C24.907 20.5322 24.816 20.5064 24.737 20.4576C24.658 20.4087 24.5942 20.3389 24.5527 20.2558C24.5111 20.1728 24.4936 20.0798 24.5019 19.9873C24.5102 19.8949 24.5442 19.8065 24.5999 19.7322L31.5999 10.3985C31.6465 10.3364 31.7069 10.286 31.7763 10.2513C31.8457 10.2166 31.9223 10.1985 31.9999 10.1985C32.0775 10.1985 32.1541 10.2166 32.2235 10.2513C32.2929 10.286 32.3533 10.3364 32.3999 10.3985ZM31.5249 49.1872L23.0624 25.1985C23.0358 25.1231 23.0277 25.0425 23.0387 24.9633C23.0497 24.8841 23.0796 24.8088 23.1257 24.7435C23.1719 24.6782 23.233 24.625 23.304 24.5883C23.375 24.5515 23.4537 24.5323 23.5336 24.5322H40.4661C40.5461 24.5323 40.6248 24.5515 40.6958 24.5883C40.7668 24.625 40.8279 24.6782 40.874 24.7435C40.9202 24.8088 40.95 24.8841 40.9611 24.9633C40.9721 25.0425 40.964 25.1231 40.9374 25.1985L32.4711 49.1872C32.4366 49.2846 32.3728 49.3689 32.2884 49.4285C32.204 49.4881 32.1032 49.5201 31.9999 49.5201C31.8966 49.5201 31.7958 49.4881 31.7114 49.4285C31.627 49.3689 31.5632 49.2846 31.5286 49.1872H31.5249Z" fill="#FB923C"/>
</svg>
